<?xml version="1.0" encoding="UTF-8" standalone="no"?>
<!DOCTYPE svg PUBLIC "-//W3C//DTD SVG 1.1//EN" "http://www.w3.org/Graphics/SVG/1.1/DTD/svg11.dtd">
<svg width="100%" height="100%" viewBox="0 0 629 425" version="1.1" xmlns="http://www.w3.org/2000/svg" xmlns:xlink="http://www.w3.org/1999/xlink" xml:space="preserve" xmlns:serif="http://www.serif.com/" style="fill-rule:evenodd;clip-rule:evenodd;stroke-linejoin:round;stroke-miterlimit:2;">
    <g transform="matrix(1,0,0,1,-1531.88,-784.52)">
        <g transform="matrix(2.92779,0,0,2.92779,-2953.14,-1921.37)">
            <path d="M1538.51,982.22C1538.78,975.513 1595.02,960.382 1627.26,955.374C1627.66,955.31 1628.47,953.917 1628.47,953.917L1628.47,944.421C1628.47,944.421 1577.7,944.234 1561.9,944.421C1550.49,944.557 1523.07,924.118 1534.7,924.211C1561.04,924.423 1679.51,924.47 1718.67,924.589C1729.39,924.622 1754.7,944.481 1743.98,944.421C1726.2,944.323 1651.87,944.421 1651.87,944.421L1651.87,955.291C1651.87,955.291 1652.8,956.908 1653.26,957.035C1711.62,973.138 1726.81,985.944 1729.62,1000.85C1733.27,1020.24 1695.94,1034.73 1654.07,1016.76C1652.81,1016.95 1652.08,1017.87 1651.87,1019.53C1651.87,1019.53 1651.89,1062.07 1651.87,1067.1C1651.85,1074.04 1628.81,1061.65 1628.47,1053.97C1628.17,1047.01 1628.47,1032.44 1628.47,1032.44C1628.18,1030.89 1627.39,1030.09 1625.82,1030.45C1587.11,1033.88 1537.95,995.634 1538.51,982.22ZM1628.47,1008.18C1628.58,1001.45 1628.43,984.814 1628.47,979.404C1628.49,977.41 1625.47,975.526 1623.54,976.02C1612.92,978.728 1564.43,991.121 1564.79,995.653C1566.07,1011.86 1628.31,1019.13 1628.47,1008.18ZM1651.87,976.012C1651.81,981.068 1651.88,996.814 1651.87,1002.18C1651.87,1005.04 1654.19,1007.49 1658.52,1007.59C1668.04,1007.82 1702.17,1011.14 1707.41,987.325C1709.2,979.19 1665.56,972.92 1656.51,971.542C1654.38,971.219 1651.9,973.866 1651.87,976.012Z" style="fill:rgb(254,245,228);"/>
        </g>
    </g>
</svg>
