<?xml version="1.0" encoding="UTF-8" standalone="no"?>
<!DOCTYPE svg PUBLIC "-//W3C//DTD SVG 1.1//EN" "http://www.w3.org/Graphics/SVG/1.1/DTD/svg11.dtd">
<svg width="100%" height="100%" viewBox="0 0 1025 709" version="1.1" xmlns="http://www.w3.org/2000/svg" xmlns:xlink="http://www.w3.org/1999/xlink" xml:space="preserve" xmlns:serif="http://www.serif.com/" style="fill-rule:evenodd;clip-rule:evenodd;stroke-linejoin:round;stroke-miterlimit:2;">
    <g transform="matrix(-1.84629,0,0,1.84629,811.585,35.9839)">
        <path d="M70.585,65.825C69.924,102.714 19.546,94.483 4,139C-23.086,216.561 45.625,250.86 123.656,299.696C147.956,314.904 140.656,322.648 117.96,344.717C134.191,338.379 210.446,285.273 205,223C202.779,197.604 222,163 273,188C256,157 237,150 211,170C231,131 279,139 290,159C286,143 272,132 258,127C243,121 227,123 214,129C263,93 300,131 320,187C323,149 314,97 257,82C299,75 312,103 326,130C324,101 323,79 285,61C294,60 303,61 315,64C261,10 187,52 160,147C161,107 172,92 189,68C123,110 161,170 135,181C109,191 108,137 110,121C110.073,120.462 110.121,119.932 110.144,119.409C115.797,96.148 116.224,66.064 103.469,44.899C107.537,48.942 110.303,55.039 115.414,57.806C120.175,60.391 126.104,60.828 131.248,59.237C138.152,57.097 143.984,51.537 147.305,45.242C146.597,45.48 145.853,45.664 145.098,45.808C144.331,45.945 143.592,46.03 142.817,46.061C137.571,46.231 133.591,43.635 129.892,40.189C132.056,39.044 134.147,37.942 135.915,36.219C138.845,33.371 139.729,30.272 139.789,26.283C137.543,28.223 134.999,30.095 132.042,30.738C127.865,31.633 124.861,29.928 121.485,27.809C125.018,26.33 128.22,23.772 130.266,20.524C132.097,17.625 132.835,14.576 132.075,11.2C130.539,12.869 128.989,14.413 127.031,15.608C122.955,18.074 118.618,18.271 114.089,17.148C116.366,14.737 118.071,12.12 118.361,8.733C118.642,5.392 117.472,2.826 115.361,0.349C115.194,0.287 115.31,0.32 115.005,0.382C114.933,2.496 114.635,4.296 113.344,6.037C110.208,10.316 104.115,10.88 99.299,11.714C99.537,11.294 99.738,10.852 99.932,10.391C101.451,6.826 100.704,3.962 99.331,0.54L99.224,0.816C96.548,7.813 92.103,8.202 86.088,10.881C87.072,8.999 88.324,7.269 89.568,5.551C89.013,5.64 88.45,5.741 87.893,5.863C87.316,5.99 86.772,6.118 86.22,6.26C85.669,6.401 85.13,6.55 84.59,6.731C84.049,6.912 83.509,7.093 82.974,7.295C82.451,7.503 81.909,7.717 81.392,7.946C80.875,8.174 80.364,8.422 79.853,8.671C79.354,8.926 78.849,9.195 78.348,9.483C77.848,9.771 77.361,10.067 76.886,10.369C69.72,14.987 67.826,20.459 66.117,28.51L66.071,28.473C57.208,27.364 48.834,27.172 40.921,31.92C48.845,34.802 55.758,38.962 62.014,44.634C57.403,53.883 51.334,52.625 43.454,56.989C40.315,58.724 37.954,61.222 36.988,64.763C36.075,68.15 36.646,72.126 38.468,75.113C40.589,78.64 44.165,81.057 48.153,82.008C52.57,83.033 57.186,82.018 60.995,79.636C65.678,76.723 69.187,70.956 70.309,65.601L70.585,65.825ZM77.604,38.279L77.624,38.274C77.797,37.346 78.398,36.525 79.197,36.036C80.058,35.498 81.263,35.273 82.257,35.568C82.902,35.766 83.48,36.111 84.037,36.495C84.741,37.567 85.23,38.603 84.925,39.911C84.733,40.812 84.102,41.598 83.279,42.04C82.362,42.529 81.101,42.705 80.116,42.364C79.548,42.177 79.003,41.834 78.508,41.519C77.794,40.525 77.38,39.533 77.604,38.279ZM63.028,208.828L63.014,208.828C51.48,198.158 42.741,180.213 42.434,164.361C42.434,164.098 42.463,163.863 42.478,163.6L42.522,163.776C42.961,165.415 43.18,167.113 43.532,168.767C44.19,171.855 45.025,174.871 46.049,177.857C51.904,194.806 64.58,208.316 79.861,217.318C89.302,222.88 100.031,227.037 110.687,229.584C113.585,230.286 116.527,230.857 119.44,231.472C120.787,231.75 122.382,231.926 123.656,232.423C120.216,232.57 116.264,231.662 112.853,231.12C94.6,228.237 76.772,221.548 63.028,208.828Z" style="fill:rgb(54,107,91);"/>
    </g>
</svg>
