<?xml version="1.0" encoding="UTF-8" standalone="no"?>
<!DOCTYPE svg PUBLIC "-//W3C//DTD SVG 1.1//EN" "http://www.w3.org/Graphics/SVG/1.1/DTD/svg11.dtd">
<svg width="100%" height="100%" viewBox="0 0 98 26" version="1.1" xmlns="http://www.w3.org/2000/svg" xmlns:xlink="http://www.w3.org/1999/xlink" xml:space="preserve" xmlns:serif="http://www.serif.com/" style="fill-rule:evenodd;clip-rule:evenodd;stroke-linejoin:round;stroke-miterlimit:2;">
    <g transform="matrix(2.2986,0,0,2.2986,-36.3023,-31.0754)">
        <g transform="matrix(0.0120477,0,0,0.0120477,-5.34407,12.5577)">
            <path d="M1816.92,904.186L1941.37,904.186L1938.04,320.853L1986.92,413.075L2302.48,904.186L2432.48,904.186L2432.48,148.63L2308.04,148.63L2311.37,730.853L2263.59,641.964L1946.92,148.63L1816.92,148.63L1816.92,904.186Z" style="fill-rule:nonzero;"/>
        </g>
        <g transform="matrix(0.0120477,0,0,0.0120477,-5.34407,12.5577)">
            <path d="M2789.15,918.63C2958.04,918.63 3065.81,808.63 3065.81,608.63C3065.81,415.297 2961.37,296.408 2789.15,296.408C2620.26,296.408 2512.48,407.519 2512.48,608.63C2512.48,801.964 2616.93,918.63 2789.15,918.63ZM2789.15,818.63C2689.15,818.63 2633.59,743.075 2633.59,608.63C2633.59,470.853 2689.15,396.408 2789.15,396.408C2889.15,396.408 2944.7,473.075 2944.7,608.63C2944.7,745.297 2890.26,818.63 2789.15,818.63Z" style="fill-rule:nonzero;"/>
        </g>
        <g transform="matrix(0.0120477,0,0,0.0120477,-5.34407,12.5577)">
            <path d="M3384.7,918.63C3553.59,918.63 3661.37,808.63 3661.37,608.63C3661.37,415.297 3556.93,296.408 3384.7,296.408C3215.81,296.408 3108.04,407.519 3108.04,608.63C3108.04,801.964 3212.48,918.63 3384.7,918.63ZM3384.7,818.63C3284.7,818.63 3229.15,743.075 3229.15,608.63C3229.15,470.853 3284.7,396.408 3384.7,396.408C3484.7,396.408 3540.26,473.075 3540.26,608.63C3540.26,745.297 3485.81,818.63 3384.7,818.63Z" style="fill-rule:nonzero;"/>
        </g>
        <g transform="matrix(0.0120477,0,0,0.0120477,-5.34407,12.5577)">
            <path d="M3732.48,904.186L3851.37,904.186L3851.37,608.63L4096.93,904.186L4244.7,904.186L3973.59,575.297L4229.15,311.964L4086.93,311.964L3851.37,563.075L3851.37,104.186L3732.48,104.186L3732.48,904.186Z" style="fill-rule:nonzero;"/>
        </g>
        <g transform="matrix(0.0120477,0,0,0.0120477,-5.34407,12.5577)">
            <rect x="4276.93" y="767.519" width="137.778" height="136.667" style="fill-rule:nonzero;"/>
        </g>
        <g transform="matrix(0.0120477,0,0,0.0120477,-5.34407,12.5577)">
            <rect x="4276.93" y="767.519" width="137.778" height="136.667" style="fill:rgb(54,107,91);fill-rule:nonzero;"/>
        </g>
    </g>
</svg>
