<?xml version="1.0" encoding="UTF-8" standalone="no"?>
<!DOCTYPE svg PUBLIC "-//W3C//DTD SVG 1.1//EN" "http://www.w3.org/Graphics/SVG/1.1/DTD/svg11.dtd">
<svg width="100%" height="100%" viewBox="0 0 606 606" version="1.1" xmlns="http://www.w3.org/2000/svg" xmlns:xlink="http://www.w3.org/1999/xlink" xml:space="preserve" xmlns:serif="http://www.serif.com/" style="fill-rule:evenodd;clip-rule:evenodd;stroke-linejoin:round;stroke-miterlimit:2;">
    <g transform="matrix(5.55556,0,0,5.55556,0,0)">
        <g transform="matrix(0.18,-2.80543e-33,2.80543e-33,0.18,-494.874,-26.1763)">
            <g transform="matrix(0.802313,-0.596904,0.596904,0.802313,420.001,1775.26)">
                <text x="2890.14px" y="253.545px" style="font-family:'PatrimaTest-Regular', 'Patrima Test';font-size:55.556px;fill:rgb(93,97,96);">N</text>
            </g>
            <g transform="matrix(0.879691,-0.475546,0.475546,0.879691,240.973,1416.39)">
                <text x="2919.77px" y="231.947px" style="font-family:'PatrimaTest-Regular', 'Patrima Test';font-size:55.556px;fill:rgb(93,97,96);">O</text>
            </g>
            <g transform="matrix(0.938545,-0.345156,0.345156,0.938545,107.066,1031.88)">
                <text x="2951.29px" y="215.276px" style="font-family:'PatrimaTest-Regular', 'Patrima Test';font-size:55.556px;fill:rgb(93,97,96);">O</text>
            </g>
            <g transform="matrix(0.978942,-0.204138,0.204138,0.978942,21.3782,613.631)">
                <text x="2985.01px" y="203.194px" style="font-family:'PatrimaTest-Regular', 'Patrima Test';font-size:55.556px;fill:rgb(93,97,96);">K</text>
            </g>
            <g transform="matrix(0.999994,-0.00356773,0.00356773,0.999994,-0.675246,10.8346)">
                <text x="3036.5px" y="194.682px" style="font-family:'PatrimaTest-Regular', 'Patrima Test';font-size:55.556px;fill:rgb(93,97,96);">S</text>
            </g>
            <g transform="matrix(0.992632,0.121168,-0.121168,0.992632,46.1962,-370.312)">
                <text x="3068.01px" y="194.696px" style="font-family:'PatrimaTest-Regular', 'Patrima Test';font-size:55.556px;fill:rgb(93,97,96);">T</text>
            </g>
            <g transform="matrix(0.966025,0.258447,-0.258447,0.966025,156.83,-794.872)">
                <text x="3101.74px" y="199.072px" style="font-family:'PatrimaTest-Regular', 'Patrima Test';font-size:55.556px;fill:rgb(93,97,96);">U</text>
            </g>
            <g transform="matrix(0.9185,0.39542,-0.39542,0.9185,338.049,-1223.05)">
                <text x="3136.03px" y="208.547px" style="font-family:'PatrimaTest-Regular', 'Patrima Test';font-size:55.556px;fill:rgb(93,97,96);">D</text>
            </g>
            <g transform="matrix(0.870167,0.492758,-0.492758,0.870167,521.472,-1532.41)">
                <text x="3168.71px" y="223.369px" style="font-family:'PatrimaTest-Regular', 'Patrima Test';font-size:55.556px;fill:rgb(93,97,96);">I</text>
            </g>
            <g transform="matrix(0.811375,0.584527,-0.584527,0.811375,736.777,-1818.06)">
                <text x="3185.36px" y="232.56px" style="font-family:'PatrimaTest-Regular', 'Patrima Test';font-size:55.556px;fill:rgb(93,97,96);">O</text>
            </g>
        </g>
        <g transform="matrix(-0.18,2.20436e-17,-2.20436e-17,-0.18,603.874,133.89)">
            <g transform="matrix(0.802313,-0.596904,0.596904,0.802313,420.001,1775.26)">
                <text x="2890.14px" y="253.545px" style="font-family:'PatrimaTest-Regular', 'Patrima Test';font-size:55.556px;fill:rgb(93,97,96);">N</text>
            </g>
            <g transform="matrix(0.879691,-0.475546,0.475546,0.879691,240.973,1416.39)">
                <text x="2919.77px" y="231.947px" style="font-family:'PatrimaTest-Regular', 'Patrima Test';font-size:55.556px;fill:rgb(93,97,96);">O</text>
            </g>
            <g transform="matrix(0.938545,-0.345156,0.345156,0.938545,107.066,1031.88)">
                <text x="2951.29px" y="215.276px" style="font-family:'PatrimaTest-Regular', 'Patrima Test';font-size:55.556px;fill:rgb(93,97,96);">O</text>
            </g>
            <g transform="matrix(0.978942,-0.204138,0.204138,0.978942,21.3782,613.631)">
                <text x="2985.01px" y="203.194px" style="font-family:'PatrimaTest-Regular', 'Patrima Test';font-size:55.556px;fill:rgb(93,97,96);">K</text>
            </g>
            <g transform="matrix(0.999994,-0.00356773,0.00356773,0.999994,-0.675246,10.8346)">
                <text x="3036.5px" y="194.682px" style="font-family:'PatrimaTest-Regular', 'Patrima Test';font-size:55.556px;fill:rgb(93,97,96);">S</text>
            </g>
            <g transform="matrix(0.992632,0.121168,-0.121168,0.992632,46.1962,-370.312)">
                <text x="3068.01px" y="194.696px" style="font-family:'PatrimaTest-Regular', 'Patrima Test';font-size:55.556px;fill:rgb(93,97,96);">T</text>
            </g>
            <g transform="matrix(0.966025,0.258447,-0.258447,0.966025,156.83,-794.872)">
                <text x="3101.74px" y="199.072px" style="font-family:'PatrimaTest-Regular', 'Patrima Test';font-size:55.556px;fill:rgb(93,97,96);">U</text>
            </g>
            <g transform="matrix(0.9185,0.39542,-0.39542,0.9185,338.049,-1223.05)">
                <text x="3136.03px" y="208.547px" style="font-family:'PatrimaTest-Regular', 'Patrima Test';font-size:55.556px;fill:rgb(93,97,96);">D</text>
            </g>
            <g transform="matrix(0.870167,0.492758,-0.492758,0.870167,521.472,-1532.41)">
                <text x="3168.71px" y="223.369px" style="font-family:'PatrimaTest-Regular', 'Patrima Test';font-size:55.556px;fill:rgb(93,97,96);">I</text>
            </g>
            <g transform="matrix(0.811375,0.584527,-0.584527,0.811375,736.777,-1818.06)">
                <text x="3185.36px" y="232.56px" style="font-family:'PatrimaTest-Regular', 'Patrima Test';font-size:55.556px;fill:rgb(93,97,96);">O</text>
            </g>
        </g>
        <g transform="matrix(1.10218e-17,0.18,-0.18,1.10218e-17,134.533,-495.517)">
            <g transform="matrix(0.802313,-0.596904,0.596904,0.802313,420.001,1775.26)">
                <text x="2890.14px" y="253.545px" style="font-family:'PatrimaTest-Regular', 'Patrima Test';font-size:55.556px;fill:rgb(93,97,96);">N</text>
            </g>
            <g transform="matrix(0.879691,-0.475546,0.475546,0.879691,240.973,1416.39)">
                <text x="2919.77px" y="231.947px" style="font-family:'PatrimaTest-Regular', 'Patrima Test';font-size:55.556px;fill:rgb(93,97,96);">O</text>
            </g>
            <g transform="matrix(0.938545,-0.345156,0.345156,0.938545,107.066,1031.88)">
                <text x="2951.29px" y="215.276px" style="font-family:'PatrimaTest-Regular', 'Patrima Test';font-size:55.556px;fill:rgb(93,97,96);">O</text>
            </g>
            <g transform="matrix(0.978942,-0.204138,0.204138,0.978942,21.3782,613.631)">
                <text x="2985.01px" y="203.194px" style="font-family:'PatrimaTest-Regular', 'Patrima Test';font-size:55.556px;fill:rgb(93,97,96);">K</text>
            </g>
            <g transform="matrix(0.999994,-0.00356773,0.00356773,0.999994,-0.675246,10.8346)">
                <text x="3036.5px" y="194.682px" style="font-family:'PatrimaTest-Regular', 'Patrima Test';font-size:55.556px;fill:rgb(93,97,96);">S</text>
            </g>
            <g transform="matrix(0.992632,0.121168,-0.121168,0.992632,46.1962,-370.312)">
                <text x="3068.01px" y="194.696px" style="font-family:'PatrimaTest-Regular', 'Patrima Test';font-size:55.556px;fill:rgb(93,97,96);">T</text>
            </g>
            <g transform="matrix(0.966025,0.258447,-0.258447,0.966025,156.83,-794.872)">
                <text x="3101.74px" y="199.072px" style="font-family:'PatrimaTest-Regular', 'Patrima Test';font-size:55.556px;fill:rgb(93,97,96);">U</text>
            </g>
            <g transform="matrix(0.9185,0.39542,-0.39542,0.9185,338.049,-1223.05)">
                <text x="3136.03px" y="208.547px" style="font-family:'PatrimaTest-Regular', 'Patrima Test';font-size:55.556px;fill:rgb(93,97,96);">D</text>
            </g>
            <g transform="matrix(0.870167,0.492758,-0.492758,0.870167,521.472,-1532.41)">
                <text x="3168.71px" y="223.369px" style="font-family:'PatrimaTest-Regular', 'Patrima Test';font-size:55.556px;fill:rgb(93,97,96);">I</text>
            </g>
            <g transform="matrix(0.811375,0.584527,-0.584527,0.811375,736.777,-1818.06)">
                <text x="3185.36px" y="232.56px" style="font-family:'PatrimaTest-Regular', 'Patrima Test';font-size:55.556px;fill:rgb(93,97,96);">O</text>
            </g>
        </g>
        <g transform="matrix(-3.30655e-17,-0.18,0.18,-3.30655e-17,-25.533,603.23)">
            <g transform="matrix(0.802313,-0.596904,0.596904,0.802313,420.001,1775.26)">
                <text x="2890.14px" y="253.545px" style="font-family:'PatrimaTest-Regular', 'Patrima Test';font-size:55.556px;fill:rgb(93,97,96);">N</text>
            </g>
            <g transform="matrix(0.879691,-0.475546,0.475546,0.879691,240.973,1416.39)">
                <text x="2919.77px" y="231.947px" style="font-family:'PatrimaTest-Regular', 'Patrima Test';font-size:55.556px;fill:rgb(93,97,96);">O</text>
            </g>
            <g transform="matrix(0.938545,-0.345156,0.345156,0.938545,107.066,1031.88)">
                <text x="2951.29px" y="215.276px" style="font-family:'PatrimaTest-Regular', 'Patrima Test';font-size:55.556px;fill:rgb(93,97,96);">O</text>
            </g>
            <g transform="matrix(0.978942,-0.204138,0.204138,0.978942,21.3782,613.631)">
                <text x="2985.01px" y="203.194px" style="font-family:'PatrimaTest-Regular', 'Patrima Test';font-size:55.556px;fill:rgb(93,97,96);">K</text>
            </g>
            <g transform="matrix(0.999994,-0.00356773,0.00356773,0.999994,-0.675246,10.8346)">
                <text x="3036.5px" y="194.682px" style="font-family:'PatrimaTest-Regular', 'Patrima Test';font-size:55.556px;fill:rgb(93,97,96);">S</text>
            </g>
            <g transform="matrix(0.992632,0.121168,-0.121168,0.992632,46.1962,-370.312)">
                <text x="3068.01px" y="194.696px" style="font-family:'PatrimaTest-Regular', 'Patrima Test';font-size:55.556px;fill:rgb(93,97,96);">T</text>
            </g>
            <g transform="matrix(0.966025,0.258447,-0.258447,0.966025,156.83,-794.872)">
                <text x="3101.74px" y="199.072px" style="font-family:'PatrimaTest-Regular', 'Patrima Test';font-size:55.556px;fill:rgb(93,97,96);">U</text>
            </g>
            <g transform="matrix(0.9185,0.39542,-0.39542,0.9185,338.049,-1223.05)">
                <text x="3136.03px" y="208.547px" style="font-family:'PatrimaTest-Regular', 'Patrima Test';font-size:55.556px;fill:rgb(93,97,96);">D</text>
            </g>
            <g transform="matrix(0.870167,0.492758,-0.492758,0.870167,521.472,-1532.41)">
                <text x="3168.71px" y="223.369px" style="font-family:'PatrimaTest-Regular', 'Patrima Test';font-size:55.556px;fill:rgb(93,97,96);">I</text>
            </g>
            <g transform="matrix(0.811375,0.584527,-0.584527,0.811375,736.777,-1818.06)">
                <text x="3185.36px" y="232.56px" style="font-family:'PatrimaTest-Regular', 'Patrima Test';font-size:55.556px;fill:rgb(93,97,96);">O</text>
            </g>
        </g>
    </g>
</svg>
